# xmcd
#
# Track frame offsets: 
#        150
#        14636
#        27540
#        44226
#        55552
#        66653
#        77890
#        91756
#        105694
#        124414
#        136879
#        153673
#
# Disc length: 2196 seconds
#
# Revision: 1
# Processed by: cddbd v1.5.2PL0 Copyright (c) Steve Scherf et al.
# Submitted via: ExactAudioCopy v0.99pb5
#
DISCID=ae08920c
DTITLE=Duke Ellington - Mary Poppins
DYEAR=1964
DGENRE=Big Band
TTITLE0=A Spoonful of Sugar
TTITLE1=Chim Chim Cheree
TTITLE2=Feed the Birds
TTITLE3=Let's Go Fly a Kite
TTITLE4=Stay Awake
TTITLE5=I Love to Laugh
TTITLE6=Jolly Holiday
TTITLE7=Sister Suffragette
TTITLE8=The Perfect Nanny
TTITLE9=Step in Time
TTITLE10=The Life I Lead
TTITLE11=Supercalifragilisticexpialidocious
EXTD=YEAR: 1964
EXTT0=
EXTT1=
EXTT2=
EXTT3=
EXTT4=
EXTT5=
EXTT6=
EXTT7=
EXTT8=
EXTT9=
EXTT10=
EXTT11=
PLAYORDER=
